<?xml version="1.0" standalone="no"?>
<!DOCTYPE svg PUBLIC "-//W3C//DTD SVG 20010904//EN"
 "http://www.w3.org/TR/2001/REC-SVG-20010904/DTD/svg10.dtd">
<svg version="1.0" xmlns="http://www.w3.org/2000/svg"
 width="300.000000pt" height="300.000000pt" viewBox="0 0 300.000000 300.000000"
 preserveAspectRatio="xMidYMid meet">
<metadata>
Created by potrace 1.10, written by Peter Selinger 2001-2011
</metadata>
<g transform="translate(0.000000,300.000000) scale(0.100000,-0.100000)"
fill="#000000" stroke="none">
<path d="M2435 2659 c28 -24 78 -71 113 -105 34 -34 62 -58 62 -54 0 11 -156
156 -195 182 -16 11 -7 0 20 -23z"/>
<path d="M452 2563 c-65 -65 -137 -147 -161 -183 -23 -36 -31 -51 -16 -35 15
17 38 48 52 70 15 22 78 91 142 153 63 61 112 112 108 112 -5 0 -61 -53 -125
-117z"/>
<path d="M2620 2483 c0 -4 19 -28 41 -53 23 -25 35 -36 28 -25 -23 34 -69 86
-69 78z"/>
<path d="M1429 2440 c-25 -13 -44 -34 -58 -64 l-22 -44 -57 5 c-48 4 -61 2
-84 -17 -17 -13 -28 -31 -28 -46 0 -24 0 -24 -112 -24 -124 0 -159 -12 -195
-67 -17 -25 -18 -73 -21 -766 -2 -474 1 -751 8 -775 5 -21 24 -51 40 -67 l31
-30 569 0 569 0 31 30 c16 16 35 46 40 67 7 24 10 301 8 775 -3 693 -4 741
-21 766 -36 55 -71 67 -194 67 -113 0 -113 0 -113 24 0 15 -11 33 -27 46 -24
19 -37 21 -85 17 l-57 -5 -21 42 c-37 77 -125 106 -201 66z m140 -54 c12 -13
26 -39 30 -57 l7 -34 82 -3 82 -3 0 -79 0 -80 -270 0 -270 0 0 80 0 79 82 3
82 3 7 33 c17 85 109 117 168 58z m-370 -280 c12 -14 49 -16 302 -16 286 0
288 0 303 22 9 12 16 38 16 58 l0 35 121 -5 c112 -5 122 -7 140 -29 18 -22 19
-50 19 -777 l0 -753 -24 -28 -24 -28 -552 0 -552 0 -24 28 -24 28 0 753 c0
727 1 755 19 777 18 22 28 24 138 29 l118 5 5 -41 c3 -23 12 -49 19 -58z"/>
<path d="M1455 2355 c-30 -29 -32 -64 -5 -93 41 -44 120 -13 120 45 0 30 -42
73 -70 73 -11 0 -32 -11 -45 -25z m71 -36 c3 -6 -1 -18 -10 -27 -15 -15 -17
-15 -32 0 -19 19 -11 38 16 38 10 0 22 -5 26 -11z"/>
<path d="M1581 1966 c-8 -9 -11 -57 -9 -147 l3 -134 68 -3 c63 -3 69 -1 97 27
29 28 30 33 30 116 0 47 -5 95 -11 107 -22 41 -151 66 -178 34z m133 -52 c12
-11 16 -35 16 -89 0 -65 -3 -76 -22 -89 -12 -9 -37 -16 -55 -16 l-33 0 0 105
0 105 39 0 c23 0 46 -7 55 -16z"/>
<path d="M1874 1961 c-41 -25 -57 -75 -52 -158 4 -59 8 -69 36 -94 44 -40 93
-39 133 0 28 28 29 34 29 116 0 97 -13 127 -62 144 -42 15 -48 14 -84 -8z m88
-48 c27 -24 26 -145 -2 -173 -24 -24 -38 -25 -68 -4 -19 13 -22 24 -22 89 0
54 4 78 16 89 20 21 53 20 76 -1z"/>
<path d="M1263 1952 c-30 -23 -43 -63 -43 -126 0 -102 33 -146 109 -146 32 0
44 6 65 31 23 27 26 39 26 114 0 75 -3 87 -26 114 -21 26 -33 31 -67 31 -24 0
-51 -8 -64 -18z m99 -39 c25 -22 26 -148 1 -175 -20 -22 -51 -23 -75 -1 -25
22 -26 148 -1 175 20 22 51 23 75 1z"/>
<path d="M980 1931 c0 -15 8 -20 36 -23 l36 -3 2 -100 c1 -93 2 -100 21 -100
19 0 20 8 23 102 l3 102 37 3 c25 2 37 8 37 18 0 12 -19 16 -97 18 -92 3 -98
1 -98 -17z"/>
<path d="M1146 1544 l-49 -54 -27 32 c-25 30 -50 32 -50 5 0 -17 59 -87 74
-87 18 0 136 123 136 143 0 32 -34 16 -84 -39z"/>
<path d="M1332 1523 c3 -17 26 -18 296 -21 287 -2 292 -2 292 18 0 20 -6 20
-296 20 -276 0 -295 -1 -292 -17z"/>
<path d="M1150 1315 l-55 -56 -18 26 c-22 29 -57 34 -57 7 0 -19 58 -82 76
-82 17 0 134 125 134 143 0 30 -24 19 -80 -38z"/>
<path d="M1337 1303 c-4 -3 -7 -12 -7 -20 0 -10 56 -13 295 -13 288 0 295 0
295 20 0 20 -7 20 -288 20 -159 0 -292 -3 -295 -7z"/>
<path d="M1150 1085 l-55 -56 -20 26 c-24 29 -55 33 -55 7 0 -19 58 -82 76
-82 17 0 134 125 134 143 0 30 -24 18 -80 -38z"/>
<path d="M1337 1073 c-4 -3 -7 -12 -7 -20 0 -10 56 -13 295 -13 288 0 295 0
295 20 0 20 -7 20 -288 20 -159 0 -292 -3 -295 -7z"/>
<path d="M1150 855 l-55 -56 -22 26 c-12 14 -29 25 -38 25 -27 0 -16 -35 23
-73 l38 -37 68 69 c47 47 67 74 63 85 -10 25 -19 20 -77 -39z"/>
<path d="M1333 834 c-3 -9 0 -20 8 -25 8 -5 140 -8 294 -6 273 2 280 3 280 22
0 19 -8 20 -288 23 -257 2 -288 1 -294 -14z"/>
<path d="M2798 778 c-15 -29 -26 -53 -24 -55 1 -2 15 20 30 48 16 28 26 52 24
54 -2 2 -16 -19 -30 -47z"/>
<path d="M200 760 c20 -39 131 -200 144 -207 6 -4 3 4 -7 17 -9 14 -43 63 -74
110 -61 92 -83 120 -63 80z"/>
<path d="M2730 662 c-14 -20 -33 -44 -42 -54 -10 -10 -14 -18 -9 -18 10 0 85
100 79 105 -2 2 -15 -13 -28 -33z"/>
<path d="M2660 570 c0 -6 -55 -65 -122 -133 -114 -114 -116 -121 -5 -17 68 63
151 160 138 160 -6 0 -11 -5 -11 -10z"/>
<path d="M360 533 c0 -5 36 -44 80 -88 44 -44 80 -77 80 -75 0 3 -36 43 -80
88 -44 46 -80 80 -80 75z"/>
<path d="M2218 201 c-85 -49 -70 -51 20 -3 23 12 42 25 42 27 0 9 -14 3 -62
-24z"/>
<path d="M2005 100 c-22 -11 -29 -17 -16 -14 38 10 88 33 71 33 -8 0 -33 -8
-55 -19z"/>
</g>
</svg>
